<svg width="55" height="98" viewBox="0 0 55 98" fill="none" xmlns="http://www.w3.org/2000/svg">
<path d="M23.1644 97.7363V81.863L11.6458 77.4416L9.54466 76.6482L18.4309 60.6169C15.7242 59.4918 12.9041 57.9225 10.1197 56.4498C9.04153 55.8794 7.97 55.5946 6.90562 55.5946C4.57007 55.5946 2.26836 56.9672 0 59.712C2.33602 42.346 9.1392 32.9905 20.4091 31.6445C21.3562 31.5311 22.3344 31.4749 23.3445 31.4749C23.5036 31.4749 23.6642 31.4759 23.8247 31.4787C40.8158 31.776 41.3308 44.6291 43.0598 44.6277C43.3643 44.6272 43.7059 44.2294 44.1819 43.2951C46.3011 39.1324 44.1738 34.3274 37.7989 28.8807C31.4402 23.6769 29.0556 18.213 30.6455 12.489C31.9929 7.63685 35.1494 4.37367 40.1144 2.69991C41.2617 1.06904 43.1785 0.000365358 45.3496 0.000365358C48.8615 0.000365358 51.7083 2.79616 51.7083 6.24468C51.7083 6.89026 51.6087 7.51345 51.4234 8.099C54.1396 10.91 55.2945 13.4142 54.8876 15.6111C54.4393 18.0329 53.9909 19.2436 53.5426 19.2436C53.4611 19.2436 53.3797 19.2035 53.2982 19.1235C52.3177 15.0308 50.3161 12.7205 47.2935 12.1922C46.6808 12.3846 46.0276 12.489 45.3496 12.489C42.8359 12.489 40.6628 11.0563 39.6308 8.97758C32.8543 14.0336 37.0947 21.1546 40.5809 24.1972C44.1576 27.3193 54.4774 37.2699 48.335 49.2035C42.3704 60.7921 25.4437 63.0028 25.4437 63.0028V80.2606L32.0768 82.842C33.5247 83.5001 34.2051 85.1909 33.6024 86.6822C33.1302 87.8514 32.0048 88.5614 30.8166 88.5614C30.4897 88.5614 30.1577 88.5074 29.8332 88.3946L31.2225 84.956L25.4437 82.7378V94.9696C25.6748 94.9123 25.9158 94.8823 26.1646 94.8823C27.7726 94.8823 29.0861 96.1467 29.1643 97.7358H25.4437L23.1644 97.7363ZM20.5825 61.4162L12.814 75.3461L23.1644 79.374V62.0475C22.3249 61.9161 21.462 61.6987 20.5825 61.4162Z" fill="black"/>
</svg>
