<svg width="300" height="300" viewBox="0 0 300 300" fill="none" xmlns="http://www.w3.org/2000/svg">
<mask id="mask0_542_838" style="mask-type:alpha" maskUnits="userSpaceOnUse" x="0" y="0" width="300" height="300">
<circle cx="150" cy="150" r="150" fill="#FB4552"/>
</mask>
<g mask="url(#mask0_542_838)">
<path fill-rule="evenodd" clip-rule="evenodd" d="M170.103 299.025C243.453 289.117 300 226.258 300 150.192C300 67.2433 232.757 0 149.808 0C66.8589 0 -0.384413 67.2433 -0.384413 150.192C-0.384413 170.989 3.84255 190.799 11.4842 208.809C7.36456 208.971 3.29437 209.26 -0.649534 209.674C-66.8341 217.508 -107.091 272.342 -120.737 374.517C-101.291 351.017 -81.5039 344.546 -61.0345 355.445C-57.1503 357.464 -53.247 359.541 -49.3382 361.621C-36.7672 368.311 -24.1389 375.03 -11.9077 379.967L-64.1049 474.309L-51.8232 479.077L16.0672 504.961V598.282H29.3723H51.2065C50.8653 589.086 43.0187 581.593 33.4662 581.593C32.1019 581.593 30.7375 581.934 29.3731 582.274L29.3723 582.274V510.411L63.4881 523.353L55.3003 543.448C64.1704 546.513 74.064 542.085 77.4756 533.23C80.8872 524.375 77.1344 514.498 68.6055 510.751L29.3723 495.425V393.931V389.163C57.6884 388.481 128.99 380.988 164.13 312.871C166.537 308.202 168.514 303.583 170.103 299.025ZM149.808 300.384C156.691 300.384 163.466 299.921 170.103 299.025C192.384 235.091 138.159 182.906 118.415 165.739C97.9451 147.688 73.0405 105.796 112.956 76.1647C119.097 88.4258 131.72 96.9404 146.731 96.9404C150.825 96.9404 154.577 96.2593 158.33 95.2375C176.07 98.3028 188.011 111.926 193.81 136.108C196.881 139.173 199.951 132.361 203.022 115.332C205.069 102.39 198.245 87.404 182.211 71.056C183.235 67.6501 183.917 63.9037 183.917 60.1572C183.917 39.7221 167.2 23.374 146.389 23.374C133.767 23.374 122.167 29.5046 115.685 39.3815C86.3457 49.2585 67.9232 68.3313 59.7354 96.9404C50.5241 130.658 64.5116 162.673 102.039 193.326C139.566 225.341 152.189 253.61 139.566 278.132C132.893 291.214 130.707 286.461 125.352 274.812C115.648 253.707 95.5378 209.969 19.4788 208.652C16.8071 208.652 14.1354 208.705 11.4842 208.809C34.3214 262.633 87.6559 300.384 149.808 300.384ZM-45.3412 466.475L15.726 490.316V388.141C10.6087 387.46 5.4913 386.097 0.373941 384.394L-45.3412 466.475Z" fill="#FB4552"/>
</g>
</svg>
